<?xml version="1.0" encoding="utf-8"?>
<!-- Svg Vector Icons : http://www.onlinewebfonts.com/icon -->
<!DOCTYPE svg PUBLIC "-//W3C//DTD SVG 1.1//EN" "http://www.w3.org/Graphics/SVG/1.1/DTD/svg11.dtd">
<svg version="1.1" xmlns="http://www.w3.org/2000/svg" xmlns:xlink="http://www.w3.org/1999/xlink" x="0px" y="0px" viewBox="0 0 1000 1000" enable-background="new 0 0 1000 1000" xml:space="preserve">
<metadata> Svg Vector Icons : http://www.onlinewebfonts.com/icon </metadata>
<g><g transform="translate(0.000000,512.000000) scale(0.100000,-0.100000)"><path d="M3464.3,5000.4L100,4996.6V116.7v-4879.9h4901h4899l-5.7,3923.1l-5.7,3923.1l-956.8,956.8l-954.9,954.9l-576,5.8C7085,5004.2,5312.9,5004.2,3464.3,5000.4z M2798.3,3140.3V1628.5H4999h2200.7v1511.8v1511.8h310h310l857.3-855.4l857.3-857.3V-738.8v-3680h-574.1h-574.1v2688.7V958.7H4999H1611.8v-2688.7v-2688.7h-574.1H463.6V116.7v4535.4H1631h1167.3V3140.3z M6836.2,3312.5V1972.9H4999H3161.9v1339.6v1339.6H4999h1837.1V3312.5z M8022.7-1902.3v-2516.5H4999H1975.4v2516.5V614.2H4999h3023.6V-1902.3z"/><path d="M5592.3,3360.4v-928.1h363.6h363.6v928.1v928.1h-363.6h-363.6V3360.4z"/><path d="M2970.5-400v-172.2H4999h2028.5V-400v172.2H4999H2970.5V-400z"/><path d="M2970.5-1414.3v-172.2H4999h2028.5v172.2v172.2H4999H2970.5V-1414.3z"/><path d="M2970.5-2419v-181.8H4999h2028.5v181.8v181.8H4999H2970.5V-2419z"/><path d="M2970.5-3433.2V-3615l2024.7,3.8l2022.8,5.7l5.7,178l5.7,176.1H4999H2970.5V-3433.2z"/></g></g>
</svg>