<svg width="65" height="64" viewBox="0 0 65 64" fill="none" xmlns="http://www.w3.org/2000/svg">
<g opacity="0.8">
<path d="M64.5001 48.8731L59.577 46.5873V41.1428C59.571 37.9048 58.3325 34.7731 56.0802 32.3011C53.828 29.8291 50.7072 28.1761 47.2693 27.6342V22.8571H42.3462V27.6342C38.9084 28.1761 35.7875 29.8291 33.5353 32.3011C31.2831 34.7731 30.0445 37.9048 30.0386 41.1428V46.5873L25.1155 48.8731V59.4285H39.8847V63.9999H49.7309V59.4285H64.5001V48.8731ZM59.577 54.8571H30.0386V51.6982L34.9616 49.4125V41.1428C34.9616 38.7179 35.999 36.3924 37.8455 34.6778C39.692 32.9632 42.1964 31.9999 44.8078 31.9999C47.4191 31.9999 49.9236 32.9632 51.7701 34.6778C53.6166 36.3924 54.6539 38.7179 54.6539 41.1428V49.4125L59.577 51.6982V54.8571Z" fill="#4B6A5E"/>
<path d="M59.5769 9.14286C59.5769 7.93044 59.0582 6.76768 58.135 5.91037C57.2117 5.05306 55.9595 4.57143 54.6538 4.57143H44.8077V0H39.8846V4.57143H20.1923V0H15.2692V4.57143H5.42308C4.1174 4.57143 2.86519 5.05306 1.94194 5.91037C1.01868 6.76768 0.5 7.93044 0.5 9.14286V54.8571C0.5 56.0696 1.01868 57.2323 1.94194 58.0896C2.86519 58.9469 4.1174 59.4286 5.42308 59.4286H15.2692V54.8571H5.42308V9.14286H15.2692V13.7143H20.1923V9.14286H39.8846V13.7143H44.8077V9.14286H54.6538V22.8571H59.5769V9.14286Z" fill="#4B6A5E"/>
</g>
</svg>
