<svg width="46" height="46" viewBox="0 0 46 46" fill="none" xmlns="http://www.w3.org/2000/svg">
<g clip-path="url(#clip0)">
<path d="M36.0684 15.2276L31.1314 10.2905C30.9455 10.1045 30.6931 10 30.43 10C29.6395 10 10.894 10 10.2357 10C9.68783 10 9.24365 10.4442 9.24365 10.992V36.1234C9.24365 36.6712 9.68783 37.1154 10.2357 37.1154H35.3671C35.9149 37.1154 36.3591 36.6712 36.3591 36.1233V15.9291C36.359 15.666 36.2545 15.4136 36.0684 15.2276ZM18.243 11.984H27.3592V18.6643H18.243V11.984ZM34.375 35.1314H11.2277V11.984H16.2589V19.6563C16.2589 20.2042 16.7031 20.6483 17.251 20.6483H28.3512C28.8991 20.6483 29.3433 20.2042 29.3433 19.6563V11.984H30.0192L34.375 16.34V35.1314Z" fill="#333333"/>
<path d="M16.1255 23.0154C15.5766 23.0154 15.1316 23.656 15.1316 24.4462V35.6846C15.1316 36.4748 15.5766 37.1154 16.1255 37.1154H29.4773C30.0262 37.1154 30.4711 36.4748 30.4711 35.6846V24.4462C30.4711 23.656 30.0262 23.0154 29.4773 23.0154H16.1255ZM17.1194 35.2564V25.8769H28.4834V35.2564H23.0001H17.1194Z" fill="#333333"/>
<path d="M24.818 13.4425C24.2701 13.4425 23.8259 13.8866 23.8259 14.4345V16.2138C23.8259 16.7617 24.2701 17.2058 24.818 17.2058C25.3658 17.2058 25.81 16.7617 25.81 16.2138V14.4345C25.81 13.8866 25.3658 13.4425 24.818 13.4425Z" fill="#333333"/>
</g>
<circle cx="23" cy="23" r="22.5" stroke="#333333"/>
<defs>
<clipPath id="clip0">
<rect width="27.1154" height="27.1154" fill="white" transform="translate(9.24365 10)"/>
</clipPath>
</defs>
</svg>
