<svg width="170" height="169" viewBox="0 0 170 169" fill="none" xmlns="http://www.w3.org/2000/svg">
<path d="M60.3906 63.2812C59.4582 63.2812 58.564 62.9109 57.9047 62.2515C57.2454 61.5922 56.875 60.698 56.875 59.7656C56.875 58.8332 57.2454 57.939 57.9047 57.2797C58.564 56.6204 59.4582 56.25 60.3906 56.25C61.323 56.25 62.2172 56.6204 62.8765 57.2797C63.5359 57.939 63.9062 58.8332 63.9062 59.7656C63.9062 60.698 63.5359 61.5922 62.8765 62.2515C62.2172 62.9109 61.323 63.2812 60.3906 63.2812Z" fill="white" stroke="white" stroke-width="10.5469" stroke-linecap="round" stroke-linejoin="round"/>
<path d="M109.609 63.2812C108.677 63.2812 107.783 62.9109 107.123 62.2515C106.464 61.5922 106.094 60.698 106.094 59.7656C106.094 58.8332 106.464 57.939 107.123 57.2797C107.783 56.6204 108.677 56.25 109.609 56.25C110.542 56.25 111.436 56.6204 112.095 57.2797C112.755 57.939 113.125 58.8332 113.125 59.7656C113.125 60.698 112.755 61.5922 112.095 62.2515C111.436 62.9109 110.542 63.2812 109.609 63.2812Z" fill="white" stroke="white" stroke-width="10.5469" stroke-linecap="round" stroke-linejoin="round"/>
<path d="M85 154.688C123.834 154.688 155.312 123.209 155.312 84.375C155.312 45.5414 123.834 14.0625 85 14.0625C46.1664 14.0625 14.6875 45.5414 14.6875 84.375C14.6875 123.209 46.1664 154.688 85 154.688Z" stroke="white" stroke-width="10.5469" stroke-linecap="round" stroke-linejoin="round"/>
<path d="M53.3594 108.984C53.3594 108.984 63.9062 94.9219 85 94.9219C106.094 94.9219 116.641 108.984 116.641 108.984" stroke="white" stroke-width="10.5469" stroke-linecap="round" stroke-linejoin="round"/>
</svg>
