<svg width="418" height="425" viewBox="0 0 418 425" fill="none" xmlns="http://www.w3.org/2000/svg">
<path d="M400.703 262.817H0.702637V263.018H400.703V262.817Z" fill="#EBEBEB"/>
<path d="M326.398 268.279H267.366V268.479H326.398V268.279Z" fill="#EBEBEB"/>
<path d="M90.5504 269.626H83.5984V269.827H90.5504V269.626Z" fill="#EBEBEB"/>
<path d="M342.551 275.721H327.199V275.922H342.551V275.721Z" fill="#EBEBEB"/>
<path d="M199.639 273.011H160.703V273.211H199.639V273.011Z" fill="#EBEBEB"/>
<path d="M153.583 273.011H134.079V273.211H153.583V273.011Z" fill="#EBEBEB"/>
<path d="M69.1907 269.626H42.6707V269.827H69.1907V269.626Z" fill="#EBEBEB"/>
<path d="M190.303 227.048H35.8308C34.6206 227.046 33.4608 226.562 32.6059 225.704C31.7509 224.845 31.2708 223.682 31.2708 222.469V4.78169C31.2813 3.5755 31.7661 2.42219 32.6199 1.57226C33.4737 0.722334 34.6275 0.244437 35.8308 0.242371H190.303C191.514 0.242371 192.676 0.724844 193.533 1.58365C194.39 2.44246 194.871 3.60725 194.871 4.82179V222.469C194.871 223.683 194.39 224.848 193.533 225.707C192.676 226.566 191.514 227.048 190.303 227.048ZM35.8308 0.402771C34.6737 0.404896 33.5647 0.867181 32.7473 1.68816C31.9299 2.50913 31.4708 3.62172 31.4708 4.78169V222.469C31.4708 223.629 31.9299 224.741 32.7473 225.562C33.5647 226.383 34.6737 226.845 35.8308 226.847H190.303C191.461 226.845 192.57 226.383 193.389 225.563C194.208 224.742 194.669 223.629 194.671 222.469V4.78169C194.669 3.62098 194.208 2.50842 193.389 1.68767C192.57 0.86692 191.461 0.404891 190.303 0.402771H35.8308Z" fill="#EBEBEB"/>
<path d="M363.351 227.048H208.871C207.66 227.046 206.499 226.563 205.643 225.704C204.787 224.846 204.305 223.682 204.303 222.469V4.78169C204.315 3.57477 204.802 2.42147 205.657 1.57176C206.512 0.722054 207.667 0.244414 208.871 0.242371H363.351C364.553 0.246545 365.704 0.725374 366.556 1.57508C367.408 2.42478 367.892 3.57689 367.903 4.78169V222.469C367.903 223.68 367.424 224.843 366.57 225.701C365.717 226.559 364.559 227.044 363.351 227.048ZM208.871 0.402771C207.713 0.404891 206.603 0.86692 205.784 1.68767C204.966 2.50842 204.505 3.62098 204.503 4.78169V222.469C204.505 223.629 204.966 224.742 205.784 225.563C206.603 226.383 207.713 226.845 208.871 226.847H363.351C364.509 226.845 365.618 226.383 366.437 225.563C367.256 224.742 367.717 223.629 367.719 222.469V4.78169C367.717 3.62098 367.256 2.50842 366.437 1.68767C365.618 0.86692 364.509 0.404891 363.351 0.402771H208.871Z" fill="#EBEBEB"/>
<path d="M263.703 260.507H139.895V262.809H263.703V260.507Z" fill="#F0F0F0"/>
<path d="M311.159 167.259C311.159 167.259 321.407 181.695 336.431 169.368C350.383 157.94 336.671 130.287 336.671 130.287C336.671 130.287 352.887 135.395 355.503 113.958C358.119 92.5205 335.103 97.9661 335.103 97.9661C343.303 81.6213 333.903 81.1241 326.887 82.5677C329.015 78.5577 329.687 73.6334 324.623 69.4871C313.031 59.9994 305.127 71.0911 305.127 71.0911C305.127 71.0911 299.095 50.3032 284.823 62.4375V178.487C303.343 194.214 311.159 167.259 311.159 167.259Z" fill="#F5F5F5"/>
<path d="M290.167 53.7518H53.7666V262.817H290.167V53.7518Z" fill="#FAFAFA"/>
<path d="M273.159 21.2708H70.7746L53.7666 53.7518H290.167L273.159 21.2708Z" fill="#F0F0F0"/>
<path d="M254.663 241.356V219.886H240.775V198.425H139.663V219.886H153.551V241.356H167.447V262.817H268.551V241.356H254.663Z" fill="#F5F5F5"/>
<path d="M139.663 198.425V219.886H153.551V241.356H167.447V262.817H53.7666V198.425H139.663Z" fill="#EBEBEB"/>
<path d="M240.775 217.584H139.663V219.886H240.775V217.584Z" fill="#F0F0F0"/>
<path d="M254.663 239.046H153.551V241.348H254.663V239.046Z" fill="#F0F0F0"/>
<path d="M132.703 72.6871H66.2148V198.425H132.703V72.6871Z" fill="#F0F0F0"/>
<path d="M64.9669 198.425H66.2148L66.2148 72.687H64.9669L64.9669 198.425Z" fill="#E6E6E6"/>
<path d="M122.767 139.253C124.803 139.253 126.455 137.598 126.455 135.556C126.455 133.514 124.803 131.859 122.767 131.859C120.73 131.859 119.079 133.514 119.079 135.556C119.079 137.598 120.73 139.253 122.767 139.253Z" fill="#FAFAFA"/>
<path d="M252.431 72.6871H155.783V169.376H252.431V72.6871Z" fill="#F5F5F5"/>
<path d="M248.407 164.837V77.2264H159.823V164.837H248.407Z" fill="white"/>
<path d="M159.814 77.2344V164.837H162.422C162.422 164.837 174.374 136.165 177.702 77.2264L159.814 77.2344Z" fill="#FAFAFA"/>
<path d="M248.407 77.2344V164.837H245.791C245.791 164.837 233.847 136.165 230.519 77.2344H248.407Z" fill="#FAFAFA"/>
<path d="M250.767 117.984H157.455V124.079H250.767V117.984Z" fill="#F5F5F5"/>
<path d="M207.15 167.804V74.2589H201.07V167.804H207.15Z" fill="#F5F5F5"/>
<path d="M218 366.903C303.666 366.903 373.112 362.838 373.112 357.824C373.112 352.81 303.666 348.746 218 348.746C132.334 348.746 62.8879 352.81 62.8879 357.824C62.8879 362.838 132.334 366.903 218 366.903Z" fill="#F5F5F5"/>
<path d="M165.672 357.824H140.464C139.513 357.824 138.602 357.446 137.93 356.772C137.257 356.098 136.88 355.184 136.88 354.232V310.194H169.256V354.24C169.254 355.191 168.875 356.103 168.203 356.775C167.531 357.447 166.621 357.824 165.672 357.824Z" fill="#80B7A2"/>
<path opacity="0.2" d="M169.256 310.194H136.888V329.305L169.256 322.272V310.194Z" fill="black"/>
<path d="M183.184 252.418C183.184 240.294 187.988 228.666 196.54 220.093C205.091 211.52 216.69 206.704 228.784 206.704C240.877 206.704 252.476 211.52 261.028 220.093C269.579 228.666 274.384 240.294 274.384 252.418V310.162H183.184V252.418Z" fill="#80B7A2"/>
<path opacity="0.3" d="M183.184 252.418C183.184 240.294 187.988 228.666 196.54 220.093C205.091 211.52 216.69 206.704 228.784 206.704C240.877 206.704 252.476 211.52 261.028 220.093C269.579 228.666 274.384 240.294 274.384 252.418V310.162H183.184V252.418Z" fill="black"/>
<path d="M75.8318 252.41V304.499C75.8318 305.248 75.979 305.989 76.2649 306.68C76.5509 307.372 76.97 308 77.4982 308.529C78.0265 309.058 78.6536 309.477 79.3437 309.763C80.0337 310.048 80.7732 310.195 81.5198 310.194H183.184V252.41C183.184 240.285 187.988 228.658 196.54 220.085C205.091 211.512 216.69 206.696 228.784 206.696H121.432C109.338 206.696 97.7394 211.512 89.1877 220.085C80.6361 228.658 75.8318 240.285 75.8318 252.41Z" fill="#80B7A2"/>
<path opacity="0.2" d="M75.8394 293.143H183.191V277.103H75.8394V293.143Z" fill="black"/>
<path opacity="0.2" d="M75.8394 272.123H183.191V256.083H75.8394V272.123Z" fill="black"/>
<path d="M189.912 203.889H176.848V204.691H189.912V203.889Z" fill="#80B7A2"/>
<path d="M170 203.889H162.976V204.691H170V203.889Z" fill="#80B7A2"/>
<path d="M128.335 267.439V202.477C128.336 202.218 128.279 201.962 128.171 201.727C128.062 201.492 127.903 201.284 127.706 201.117C127.509 200.949 127.278 200.827 127.028 200.759C126.779 200.691 126.518 200.678 126.263 200.721L103.647 204.45V213.857H120.935V267.295C119.19 268.099 117.768 269.473 116.902 271.192C116.036 272.911 115.777 274.874 116.168 276.76C116.56 278.645 117.577 280.342 119.055 281.573C120.533 282.803 122.384 283.495 124.304 283.535C126.225 283.574 128.102 282.959 129.629 281.791C131.156 280.622 132.243 278.968 132.711 277.1C133.179 275.232 133.001 273.26 132.206 271.507C131.411 269.754 130.047 268.322 128.335 267.447V267.439Z" fill="#4B6A5E"/>
<path d="M189.672 316.73H306.664C307.517 316.732 308.338 316.396 308.946 315.796C309.554 315.195 309.901 314.378 309.912 313.522C309.912 312.658 309.569 311.83 308.96 311.22C308.351 310.609 307.525 310.266 306.664 310.266H183.184C183.194 311.984 183.882 313.628 185.098 314.839C186.314 316.05 187.958 316.73 189.672 316.73Z" fill="#80B7A2"/>
<path opacity="0.2" d="M189.672 316.73H237.48C238.333 316.732 239.154 316.396 239.762 315.796C240.37 315.195 240.717 314.378 240.728 313.522C240.728 312.658 240.385 311.83 239.776 311.22C239.167 310.609 238.341 310.266 237.48 310.266H183.184C183.194 311.984 183.882 313.628 185.098 314.839C186.314 316.05 187.958 316.73 189.672 316.73Z" fill="black"/>
<path d="M301.584 350.719L294.816 350.775L292.968 335.064L299.744 335.008L301.584 350.719Z" fill="#ADD495"/>
<path opacity="0.2" d="M292.968 335.072L293.92 343.172L300.696 343.108L299.744 335.016L292.968 335.072Z" fill="black"/>
<path d="M356.592 334.061L350.768 337.526L341.288 324.878L347.112 321.414L356.592 334.061Z" fill="#ADD495"/>
<path opacity="0.2" d="M341.296 324.878L346.176 331.399L352.008 327.934L347.12 321.414L341.296 324.878Z" fill="black"/>
<path d="M294.8 349.989L302.2 349.925C302.336 349.926 302.469 349.971 302.579 350.053C302.688 350.135 302.768 350.251 302.808 350.382L304.6 356.405C304.646 356.545 304.658 356.693 304.635 356.839C304.611 356.984 304.554 357.122 304.467 357.24C304.38 357.359 304.266 357.455 304.135 357.52C304.003 357.585 303.858 357.618 303.712 357.616C301.04 357.616 297.176 357.472 293.816 357.504C289.896 357.504 288.152 357.784 283.552 357.824C280.768 357.824 279.792 355.034 280.936 354.769C286.144 353.566 288.84 353.405 293.208 350.534C293.675 350.203 294.228 350.013 294.8 349.989Z" fill="#4B6A5E"/>
<path d="M292.008 351.216C292.737 351.202 293.464 351.113 294.176 350.951C294.208 350.946 294.238 350.929 294.26 350.905C294.282 350.88 294.294 350.848 294.296 350.815C294.299 350.783 294.292 350.75 294.277 350.721C294.261 350.692 294.237 350.669 294.208 350.655C293.888 350.494 291.008 349.131 290.264 349.612C290.192 349.658 290.133 349.723 290.094 349.799C290.055 349.875 290.036 349.96 290.04 350.045C290.031 350.198 290.059 350.351 290.122 350.49C290.185 350.63 290.28 350.752 290.4 350.847C290.882 351.141 291.446 351.271 292.008 351.216ZM293.608 350.735C292.144 350.991 291.032 350.935 290.584 350.574C290.505 350.511 290.443 350.43 290.401 350.338C290.36 350.246 290.34 350.146 290.344 350.045C290.341 350.014 290.346 349.983 290.358 349.955C290.371 349.927 290.391 349.903 290.416 349.885C290.856 349.612 292.464 350.19 293.624 350.719L293.608 350.735Z" fill="#80B7A2"/>
<path d="M294.144 350.943C294.175 350.95 294.208 350.95 294.24 350.943C294.263 350.927 294.281 350.903 294.291 350.876C294.301 350.849 294.303 350.819 294.296 350.791C294.296 350.663 293.768 347.743 292.152 347.928C291.728 347.976 291.608 348.184 291.584 348.361C291.472 349.163 293.184 350.59 294.08 350.959L294.144 350.943ZM292.288 348.209C293.256 348.209 293.744 349.813 293.888 350.486C293 349.981 291.808 348.826 291.872 348.377C291.872 348.377 291.872 348.241 292.16 348.209H292.288Z" fill="#80B7A2"/>
<path d="M304.624 163.251C303.736 168.408 302.608 173.356 301.24 178.353C300.557 180.844 299.802 183.328 298.976 185.804C298.544 187.047 298.136 188.282 297.648 189.517C297.416 190.134 297.184 190.752 296.92 191.369L296.544 192.3L296.352 192.757L296.248 193.005L296.104 193.318C295.447 194.736 294.643 196.08 293.704 197.328C292.904 198.459 292.032 199.502 291.176 200.536C289.464 202.557 287.68 204.434 285.872 206.279C282.261 209.915 278.464 213.36 274.496 216.6L270.888 212.999C273.968 209.078 277.072 205.116 280.072 201.194C281.568 199.237 283.024 197.248 284.384 195.283C285.064 194.305 285.712 193.318 286.28 192.356C286.794 191.536 287.233 190.672 287.592 189.773C287.64 189.677 287.752 189.292 287.84 189.036L288.112 188.185C288.304 187.632 288.472 187.055 288.64 186.477C288.984 185.33 289.304 184.159 289.632 182.997C290.256 180.647 290.84 178.273 291.408 175.883C292.512 171.071 293.576 166.211 294.536 161.447L304.624 163.251Z" fill="#ADD495"/>
<path d="M307.015 164.19C306.607 171.937 302.863 182.812 302.863 182.812L292.351 178.802L288.023 177.198C288.594 172.069 289.809 167.032 291.639 162.209C294.839 153.948 302.255 151.935 306.039 158.014C306.919 159.386 307.151 161.615 307.015 164.19Z" fill="#80B7A2"/>
<path opacity="0.2" d="M307.016 164.19C306.608 171.937 302.864 182.812 302.864 182.812L292.352 178.802C292.977 176.069 293.795 173.383 294.8 170.766C297.424 163.885 303.024 161.343 307.016 164.19Z" fill="black"/>
<path d="M272.592 212.237L265.456 213.408L265.4 220.426C265.4 220.426 272.248 219.463 274.928 216.175L272.592 212.237Z" fill="#ADD495"/>
<path d="M258.848 217.474L259 222.086L265.4 220.426L265.448 213.408L258.848 217.474Z" fill="#ADD495"/>
<path d="M299.504 213.408C299.504 213.408 289.336 250.517 286.64 271.289C283.84 292.895 290.448 339.226 290.448 339.226L302.68 338.961C302.68 338.961 303.6 291.732 307.6 270.487C311.984 247.333 320.336 212.959 320.336 212.959L299.504 213.408Z" fill="#4B6A5E"/>
<path d="M304.184 339.515L289.8 339.803L288.744 335.016L304 334.975L304.184 339.515Z" fill="#80B7A2"/>
<path opacity="0.4" d="M304.184 339.515L289.8 339.803L288.744 335.016L304 334.975L304.184 339.515Z" fill="white"/>
<path d="M350.36 336.852L356.72 333.067C356.843 332.987 356.99 332.953 357.136 332.969C357.281 332.985 357.417 333.051 357.52 333.155L362.088 337.454C362.199 337.551 362.285 337.674 362.338 337.812C362.392 337.949 362.412 338.098 362.396 338.245C362.38 338.392 362.33 338.533 362.248 338.657C362.167 338.78 362.057 338.882 361.928 338.953C359.608 340.285 356.208 342.161 353.32 343.838C349.952 345.851 348.52 346.941 344.608 349.291C342.208 350.719 339.96 348.786 340.816 347.976C344.712 344.303 346.96 342.803 349.296 338.127C349.521 337.609 349.89 337.166 350.36 336.852Z" fill="#4B6A5E"/>
<path d="M348.552 339.306C349.173 338.924 349.757 338.483 350.296 337.991C350.319 337.967 350.335 337.937 350.342 337.905C350.349 337.872 350.347 337.838 350.336 337.807C350.323 337.775 350.301 337.748 350.272 337.731C350.243 337.714 350.209 337.706 350.176 337.71C349.816 337.71 346.672 337.983 346.248 338.801C346.202 338.875 346.178 338.959 346.178 339.046C346.178 339.132 346.202 339.217 346.248 339.29C346.318 339.42 346.417 339.532 346.538 339.617C346.659 339.702 346.798 339.758 346.944 339.78C347.517 339.802 348.082 339.636 348.552 339.306ZM349.712 338.071C348.576 339.034 347.584 339.547 347.016 339.459C346.917 339.444 346.823 339.407 346.741 339.35C346.659 339.293 346.592 339.217 346.544 339.13C346.527 339.102 346.518 339.07 346.518 339.038C346.518 339.005 346.527 338.973 346.544 338.945C346.8 338.512 348.44 338.2 349.712 338.071Z" fill="#80B7A2"/>
<path d="M350.272 338.007C350.299 337.986 350.321 337.958 350.336 337.927C350.351 337.903 350.36 337.875 350.36 337.847C350.36 337.818 350.351 337.79 350.336 337.766C350.256 337.67 348.344 335.36 347.048 336.371C346.704 336.628 346.704 336.876 346.768 337.037C347.056 337.75 349.296 338.143 350.232 338.031L350.272 338.007ZM347.296 336.579C348.136 336.09 349.352 337.213 349.848 337.726C348.816 337.726 347.216 337.341 347.04 336.924C347.04 336.924 346.992 336.804 347.208 336.644L347.296 336.579Z" fill="#80B7A2"/>
<path d="M312.152 213.136C312.152 213.136 312.152 249.595 313.104 270.519C314.08 292.285 341.2 329.738 341.2 329.738L351.64 323.322C351.64 323.322 333.32 287.682 333.6 266.068C333.904 242.497 335.728 212.606 335.728 212.606L312.152 213.136Z" fill="#4B6A5E"/>
<path d="M352.984 323.314L341.424 330.388L338.536 327.509L351.256 319.008L352.984 323.314Z" fill="#80B7A2"/>
<path opacity="0.4" d="M352.984 323.314L341.424 330.388L338.536 327.509L351.256 319.008L352.984 323.314Z" fill="white"/>
<path d="M298.664 154.726C298.664 154.726 291.104 175.402 299.504 213.416L335.728 212.614C335.856 207.041 331.784 179.925 336.592 153.547C332.559 152.871 328.486 152.461 324.4 152.32C319.267 152.127 314.128 152.236 309.008 152.649C305.511 153.07 302.053 153.765 298.664 154.726Z" fill="#80B7A2"/>
<path d="M322.536 134.941C321.672 139.921 320.896 149.048 324.432 152.288C324.432 152.288 323.184 157.381 313.984 157.549C306.632 157.685 309.04 152.617 309.04 152.617C314.536 151.173 314.304 147.067 313.256 143.233L322.536 134.941Z" fill="#ADD495"/>
<path opacity="0.2" d="M318.752 138.317L313.264 143.225C313.52 144.117 313.696 145.029 313.792 145.952C315.896 145.607 318.752 143.217 318.928 140.996C319.033 140.1 318.973 139.192 318.752 138.317Z" fill="black"/>
<path opacity="0.2" d="M328.512 166.7L334.552 171.063C334.288 175.706 334.208 180.222 334.248 184.456C330.544 180.719 328.472 173.846 328.512 166.7Z" fill="black"/>
<path d="M323.112 149.81C323.112 149.81 321.376 153.996 313.272 157.557C314.575 158.082 315.755 158.874 316.736 159.882C317.717 160.89 318.477 162.092 318.968 163.412C318.968 163.412 324.864 157.798 326.44 152.184L323.112 149.81Z" fill="white"/>
<path d="M307.216 161.896C307.216 161.896 309.696 158.287 313.272 157.557C312.016 156.017 310.72 152.601 311.92 150.981C310.866 151.259 309.844 151.649 308.872 152.144C308.872 152.144 304.008 155.071 307.216 161.896Z" fill="white"/>
<path d="M306.504 120.681C303.2 122.101 301.56 131.019 305.864 132.96C310.168 134.901 312.76 118.002 306.504 120.681Z" fill="#4B6A5E"/>
<path d="M322.968 127.458C322.696 134.195 322.88 138.149 319.568 141.669C314.584 146.971 306.24 144.075 304.496 137.395C302.896 131.38 303.632 121.355 310.136 118.564C311.568 117.935 313.136 117.685 314.692 117.835C316.248 117.986 317.74 118.532 319.026 119.424C320.312 120.315 321.349 121.521 322.039 122.927C322.729 124.333 323.048 125.893 322.968 127.458Z" fill="#ADD495"/>
<path d="M312.832 129.551C312.832 130.097 312.568 130.546 312.208 130.554C311.848 130.562 311.552 130.121 311.544 129.575C311.536 129.03 311.808 128.581 312.168 128.573C312.528 128.565 312.824 128.998 312.832 129.551Z" fill="#4B6A5E"/>
<path d="M306.656 129.68C306.656 130.225 306.392 130.674 306.032 130.682C305.672 130.69 305.376 130.257 305.368 129.704C305.36 129.15 305.632 128.709 305.992 128.701C306.352 128.693 306.648 129.134 306.656 129.68Z" fill="#4B6A5E"/>
<path d="M308.632 129.912C308.014 131.6 307.169 133.195 306.12 134.652C306.498 134.911 306.928 135.084 307.38 135.158C307.832 135.233 308.294 135.208 308.736 135.085L308.632 129.912Z" fill="#ADD495"/>
<path d="M310.36 136.561C311.095 136.567 311.82 136.395 312.475 136.06C313.13 135.725 313.694 135.236 314.12 134.636C314.131 134.618 314.139 134.598 314.142 134.578C314.145 134.557 314.144 134.536 314.139 134.515C314.134 134.495 314.125 134.476 314.112 134.459C314.099 134.443 314.082 134.429 314.064 134.419C314.029 134.398 313.987 134.391 313.946 134.4C313.906 134.409 313.871 134.433 313.848 134.467C313.445 135.017 312.918 135.464 312.311 135.772C311.704 136.08 311.033 136.24 310.352 136.24C310.331 136.241 310.31 136.246 310.291 136.255C310.272 136.264 310.255 136.277 310.241 136.292C310.227 136.308 310.216 136.326 310.209 136.346C310.202 136.366 310.199 136.387 310.2 136.408C310.202 136.449 310.22 136.488 310.25 136.517C310.279 136.545 310.319 136.561 310.36 136.561Z" fill="#4B6A5E"/>
<path d="M314.648 127.514C314.72 127.512 314.79 127.487 314.848 127.442C314.913 127.389 314.955 127.311 314.964 127.227C314.973 127.143 314.948 127.059 314.896 126.993C314.589 126.585 314.189 126.256 313.73 126.035C313.271 125.813 312.765 125.704 312.256 125.718C312.171 125.725 312.092 125.766 312.038 125.831C311.983 125.897 311.956 125.981 311.964 126.067C311.971 126.152 312.012 126.23 312.077 126.285C312.142 126.34 312.227 126.367 312.312 126.359C312.714 126.356 313.112 126.446 313.473 126.625C313.835 126.803 314.149 127.064 314.392 127.386C314.421 127.426 314.46 127.459 314.504 127.481C314.549 127.503 314.598 127.515 314.648 127.514Z" fill="#4B6A5E"/>
<path d="M303.904 127.61C303.965 127.61 304.025 127.592 304.077 127.56C304.13 127.527 304.172 127.481 304.2 127.426C304.357 127.05 304.603 126.718 304.917 126.458C305.23 126.199 305.602 126.019 306 125.934C306.084 125.92 306.16 125.874 306.21 125.805C306.261 125.736 306.283 125.65 306.272 125.565C306.256 125.482 306.209 125.407 306.141 125.356C306.073 125.306 305.988 125.283 305.904 125.293C305.406 125.4 304.941 125.625 304.547 125.948C304.153 126.272 303.842 126.685 303.64 127.153C303.621 127.191 303.61 127.232 303.607 127.274C303.605 127.316 303.611 127.359 303.625 127.398C303.639 127.438 303.661 127.474 303.69 127.505C303.719 127.536 303.753 127.561 303.792 127.578C303.827 127.596 303.865 127.607 303.904 127.61Z" fill="#4B6A5E"/>
<path d="M337.752 158.335C339.264 160.516 340.592 162.65 341.96 164.847C343.328 167.045 344.592 169.258 345.848 171.504C348.395 176.052 350.66 180.752 352.632 185.579C352.888 186.18 353.112 186.822 353.344 187.448L353.696 188.394L353.872 188.875L354.08 189.533C354.59 191.261 354.774 193.07 354.624 194.866C354.308 198.005 353.264 201.026 351.576 203.688C350.107 206.065 348.358 208.257 346.368 210.216C345.416 211.179 344.408 212.069 343.384 212.927C342.347 213.786 341.265 214.589 340.144 215.333L336.888 211.419C337.6 210.617 338.408 209.623 339.128 208.701C339.848 207.778 340.552 206.792 341.216 205.829C342.511 203.98 343.623 202.008 344.536 199.943C345.332 198.223 345.749 196.353 345.76 194.457C345.732 193.734 345.58 193.02 345.312 192.348L344.672 190.92C344.424 190.391 344.2 189.854 343.928 189.316C341.864 185.026 339.48 180.759 336.976 176.54C334.472 172.322 331.848 168.087 329.248 164.037L337.752 158.335Z" fill="#ADD495"/>
<path d="M336.592 153.563C342.92 154.935 352.024 174.503 352.024 174.503L335.072 182.796C332.057 178.173 329.552 173.236 327.6 168.071C324.648 159.803 329.816 152.087 336.592 153.563Z" fill="#80B7A2"/>
<path d="M330.568 203.889L347.6 254.326C348.261 256.306 348.115 258.467 347.194 260.339C346.272 262.211 344.649 263.642 342.68 264.319L228.192 303.232C226.215 303.897 224.056 303.75 222.188 302.822C220.32 301.895 218.894 300.263 218.224 298.284L201.2 247.862C200.872 246.907 200.736 245.895 200.8 244.887C200.891 243.32 201.446 241.816 202.394 240.566C203.341 239.316 204.638 238.378 206.12 237.869L320.632 198.956C322.114 198.456 323.712 198.41 325.221 198.824C326.73 199.239 328.082 200.094 329.104 201.282C329.758 202.046 330.256 202.931 330.568 203.889Z" fill="#80B7A2"/>
<path opacity="0.8" d="M330.568 203.889L347.6 254.326C348.261 256.306 348.115 258.467 347.194 260.339C346.272 262.211 344.649 263.642 342.68 264.319L228.192 303.232C226.215 303.897 224.056 303.75 222.188 302.822C220.32 301.895 218.894 300.263 218.224 298.284L201.2 247.862C200.872 246.907 200.736 245.895 200.8 244.887C200.891 243.32 201.446 241.816 202.394 240.566C203.341 239.316 204.638 238.378 206.12 237.869L320.632 198.956C322.114 198.456 323.712 198.41 325.221 198.824C326.73 199.239 328.082 200.094 329.104 201.282C329.758 202.046 330.256 202.931 330.568 203.889Z" fill="white"/>
<path opacity="0.6" d="M329.072 201.282L281.704 243.748C279.323 245.881 276.536 247.509 273.512 248.536C270.488 249.562 267.288 249.966 264.104 249.723L200.76 244.911C200.852 243.344 201.407 241.84 202.354 240.59C203.301 239.34 204.598 238.402 206.08 237.893L320.592 198.98C322.073 198.476 323.671 198.425 325.182 198.835C326.692 199.245 328.047 200.097 329.072 201.282Z" fill="#80B7A2"/>
<path d="M338.599 210.481L331.319 210.529L335.807 217.9C335.807 217.9 340.991 216.64 341.471 214.026L338.599 210.481Z" fill="#ADD495"/>
<path d="M326.768 214.852L330.76 220.779L335.808 217.9L331.32 210.529L326.768 214.852Z" fill="#ADD495"/>
<path d="M327.552 122.061C329.152 126.456 324.312 136.633 321.496 136.44C318.68 136.248 317.912 125.67 319.512 123.039C317.992 123.745 303.512 123.769 303.584 122.237C303.952 116.671 313.8 114.65 324.6 117.425C327.408 117.289 328.456 118.059 327.552 122.061Z" fill="#4B6A5E"/>
<path d="M326.152 134.796C325.724 135.518 325.156 136.147 324.483 136.646C323.811 137.146 323.045 137.507 322.232 137.708C320.056 138.237 319.032 136.272 319.72 134.251C320.32 132.43 322.176 129.968 324.336 130.337C326.496 130.706 327.208 133.008 326.152 134.796Z" fill="#ADD495"/>
<path d="M294.952 119.438L328.184 123.288C328.351 123.306 328.519 123.257 328.651 123.152C328.783 123.047 328.868 122.894 328.888 122.726C328.906 122.56 328.859 122.392 328.755 122.261C328.652 122.129 328.502 122.042 328.336 122.02L295.096 118.179C294.93 118.161 294.763 118.208 294.631 118.312C294.5 118.415 294.414 118.566 294.392 118.732C294.374 118.9 294.422 119.068 294.527 119.2C294.632 119.332 294.785 119.418 294.952 119.438Z" fill="#80B7A2"/>
<path d="M328.888 122.694L329.464 117.722C329.457 117.178 329.249 116.656 328.879 116.259C328.509 115.861 328.004 115.616 327.464 115.572L307.056 111.707C305.544 111.418 304.152 112.268 304.16 113.471V119.839L328.888 122.694Z" fill="#80B7A2"/>
<path d="M306.064 118.371L314.704 119.374L315 116.848L306.072 115.821L306.064 118.371Z" fill="white"/>
</svg>
