<svg width="617" height="260" viewBox="0 0 617 260" fill="none" xmlns="http://www.w3.org/2000/svg">
<path d="M222.798 85.4839H0V158.593H8.43957V177.715L27.5684 158.593H222.798V85.4839Z" fill="#F0F0F0"/>
<path d="M216.609 92.6036H6.18884V151.091H216.609V92.6036Z" fill="white"/>
<path d="M126.11 110.242H24.7977V113.315H126.11V110.242Z" fill="#F0F0F0"/>
<path d="M201.376 120.873H24.7977V123.946H201.376V120.873Z" fill="#F0F0F0"/>
<path d="M201.203 131.504H24.7977V134.578H201.203V131.504Z" fill="#F0F0F0"/>
<path d="M374.257 250.622C374.257 250.622 375.319 228.379 397.091 230.964L374.257 250.622Z" fill="#F0F0F0"/>
<path d="M368.106 229.455C374.124 229.455 379.002 224.578 379.002 218.563C379.002 212.548 374.124 207.671 368.106 207.671C362.088 207.671 357.209 212.548 357.209 218.563C357.209 224.578 362.088 229.455 368.106 229.455Z" fill="#F0F0F0"/>
<path d="M369.408 236.904H366.333V258.426H369.408V236.904Z" fill="#F0F0F0"/>
<path d="M476.314 216.571C524.946 216.571 564.371 177.163 564.371 128.551C564.371 79.9395 524.946 40.5319 476.314 40.5319C427.681 40.5319 388.256 79.9395 388.256 128.551C388.256 177.163 427.681 216.571 476.314 216.571Z" fill="#4B6A5E"/>
<path d="M420.876 135.617C423.063 133 425.798 130.895 428.889 129.45C431.979 128.006 435.348 127.257 438.76 127.257C442.171 127.257 445.541 128.006 448.631 129.45C451.721 130.895 454.457 133 456.643 135.617C460.349 132.081 462.922 127.527 464.037 122.53C465.153 117.533 464.761 112.317 462.911 107.542C461.061 102.768 457.836 98.6485 453.644 95.7059C449.452 92.7633 444.482 91.1292 439.361 91.0105C434.24 90.8917 429.199 92.2934 424.875 95.0385C420.551 97.7836 417.138 101.749 415.069 106.432C412.999 111.116 412.365 116.308 413.248 121.352C414.13 126.395 416.489 131.064 420.026 134.767C420.303 135.057 420.586 135.34 420.876 135.617Z" fill="white"/>
<path d="M490.804 135.617C492.991 133 495.726 130.895 498.816 129.45C501.906 128.006 505.276 127.257 508.687 127.257C512.099 127.257 515.469 128.006 518.559 129.45C521.649 130.895 524.384 133 526.571 135.617C530.276 132.081 532.849 127.527 533.965 122.53C535.08 117.533 534.689 112.317 532.839 107.542C530.989 102.768 527.764 98.6485 523.572 95.7059C519.38 92.7633 514.409 91.1292 509.288 91.0105C504.167 90.8917 499.126 92.2934 494.802 95.0385C490.478 97.7836 487.066 101.749 484.996 106.432C482.927 111.116 482.293 116.308 483.176 121.352C484.058 126.395 486.417 131.064 489.954 134.767C490.231 135.057 490.514 135.34 490.804 135.617Z" fill="white"/>
<path d="M429.925 116.982C434.845 116.982 438.834 112.995 438.834 108.076C438.834 103.158 434.845 99.1711 429.925 99.1711C425.004 99.1711 421.016 103.158 421.016 108.076C421.016 112.995 425.004 116.982 429.925 116.982Z" fill="#4B6A5E"/>
<path d="M499.85 116.982C504.77 116.982 508.759 112.995 508.759 108.076C508.759 103.158 504.77 99.1711 499.85 99.1711C494.93 99.1711 490.941 103.158 490.941 108.076C490.941 112.995 494.93 116.982 499.85 116.982Z" fill="#4B6A5E"/>
<path d="M412.861 160.911C418.582 160.911 423.22 156.275 423.22 150.556C423.22 144.837 418.582 140.201 412.861 140.201C407.139 140.201 402.501 144.837 402.501 150.556C402.501 156.275 407.139 160.911 412.861 160.911Z" fill="#80B7A2"/>
<path d="M531.997 160.911C537.718 160.911 542.356 156.275 542.356 150.556C542.356 144.837 537.718 140.201 531.997 140.201C526.275 140.201 521.637 144.837 521.637 150.556C521.637 156.275 526.275 160.911 531.997 160.911Z" fill="#80B7A2"/>
<path d="M472.429 129.845L464.659 163.5L477.608 150.556L472.429 129.845Z" fill="#80B7A2"/>
<path d="M512.352 259.286L503.53 251.886L503.736 259.286H500.996L500.777 251.461L488.867 259.286H483.881L500.688 248.244L500.037 225.057L499.551 207.546L502.284 207.471L502.777 225.057L503.427 248.223L516.611 259.286H512.352Z" fill="#4B6A5E"/>
<path d="M470.91 259.286L462.089 251.886L462.294 259.286H459.562L459.343 251.461L447.432 259.286H442.446L459.247 248.244L458.596 225.057L458.11 207.546L460.849 207.471L461.342 225.057L461.986 248.223L475.17 259.286H470.91Z" fill="#4B6A5E"/>
<path d="M477.609 34.06C475.192 34.06 473.061 35.936 471.636 38.8176C470.38 34.4845 467.741 31.4712 464.659 31.4712C464.45 31.492 464.242 31.5269 464.037 31.5756C462.852 26.9493 460.099 23.7048 456.889 23.7048C452.598 23.7048 449.12 29.5001 449.12 36.6488C449.12 43.7975 452.598 49.5928 456.889 49.5928C457.099 49.572 457.306 49.5371 457.511 49.4884C458.696 54.1147 461.449 57.3592 464.659 57.3592C467.075 57.3592 469.207 55.4832 470.632 52.6016C471.888 56.9347 474.527 59.948 477.609 59.948C481.9 59.948 485.378 54.1527 485.378 47.004C485.378 39.8552 481.9 34.06 477.609 34.06Z" fill="#4B6A5E"/>
<path d="M393.291 131.29L344.783 123.425C342.338 123.029 339.849 122.632 337.397 122.977C334.945 123.322 332.49 124.529 331.24 126.666C330.639 127.693 330.348 128.871 330.401 130.059C330.454 131.248 330.85 132.396 331.54 133.365C332.23 134.334 333.186 135.083 334.292 135.522C335.398 135.962 336.607 136.072 337.775 135.841C335.127 135.755 332.344 135.698 329.994 136.922C327.645 138.145 325.981 141.116 327.126 143.504C327.47 144.163 327.935 144.751 328.497 145.238C330.265 146.822 332.446 147.873 334.787 148.27C337.128 148.667 339.534 148.393 341.726 147.48C339.94 150.04 336.397 150.42 333.331 151.013C330.266 151.606 326.723 153.339 326.609 156.458C326.481 159.962 330.653 161.824 334.088 162.538C352.428 166.31 371.465 164.759 388.952 158.068C390.917 157.392 392.777 156.442 394.478 155.248C396.383 153.801 397.832 151.836 398.649 149.588C399.467 147.34 399.619 144.904 399.087 142.572C398.556 140.24 397.363 138.11 395.652 136.438C393.941 134.766 391.785 133.622 389.44 133.143" fill="#4B6A5E"/>
<path d="M602.667 171.033C594.661 154.114 581.98 139.837 566.12 129.887C564.399 128.724 562.522 127.808 560.544 127.168C558.242 126.515 555.801 126.538 553.512 127.236C551.223 127.934 549.184 129.276 547.639 131.103C546.093 132.929 545.107 135.162 544.798 137.533C544.49 139.905 544.871 142.316 545.897 144.477L542.101 142.514C549.723 157.008 557.344 171.501 564.965 185.995C566.117 188.186 567.296 190.413 569.045 192.165C570.795 193.916 573.235 195.152 575.695 194.867C576.671 194.757 577.607 194.415 578.424 193.869C579.241 193.323 579.915 192.589 580.389 191.729C580.864 190.869 581.124 189.907 581.15 188.926C581.176 187.944 580.965 186.97 580.537 186.086C581.606 187.593 583.013 188.83 584.645 189.698C587.035 190.84 590.41 190.384 591.631 188.034C591.951 187.363 592.142 186.638 592.194 185.897C592.398 183.532 591.928 181.158 590.838 179.049C589.749 176.94 588.084 175.183 586.037 173.98C589.157 173.868 591.59 176.471 593.906 178.564C596.223 180.656 599.738 182.446 602.3 180.662C605.179 178.659 604.161 174.206 602.667 171.033Z" fill="#4B6A5E"/>
<path d="M39.821 0H361.38V105.517H349.199V133.113L321.591 105.517H39.821V0Z" fill="#CACACA"/>
<path d="M352.447 10.2751H48.7532V94.6887H352.447V10.2751Z" fill="white"/>
<path d="M219.396 34.9202H73.1749V39.3558H219.396V34.9202Z" fill="#80B7A2"/>
<path d="M328.026 50.2642H73.1749V54.6997H328.026V50.2642Z" fill="#80B7A2"/>
<path d="M327.776 65.6081H73.1749V70.0436H327.776V65.6081Z" fill="#80B7A2"/>
<path d="M616.286 260H344.18C343.991 260 343.809 259.925 343.675 259.791C343.541 259.657 343.466 259.475 343.466 259.286C343.466 259.097 343.541 258.915 343.675 258.781C343.809 258.647 343.991 258.572 344.18 258.572H616.286C616.475 258.572 616.657 258.647 616.791 258.781C616.925 258.915 617 259.097 617 259.286C617 259.475 616.925 259.657 616.791 259.791C616.657 259.925 616.475 260 616.286 260Z" fill="#CACACA"/>
</svg>
