<svg width="65" height="64" viewBox="0 0 65 64" fill="none" xmlns="http://www.w3.org/2000/svg">
<path opacity="0.8" d="M55.4983 14.9754C56.2183 14.9754 56.8744 15.2442 57.3904 15.6922C60.4687 18.4602 62.6921 22.1545 63.77 26.2921C64.8478 30.4298 64.7298 34.818 63.4315 38.8829C62.1332 42.9479 59.715 46.5003 56.4931 49.0756C53.2712 51.6509 49.3957 53.1291 45.3733 53.317L44.5052 53.3341H26.7396L31.6201 58.5396C32.1276 59.082 32.4358 59.8006 32.4886 60.5648C32.5415 61.329 32.3355 62.0881 31.9081 62.704L31.616 63.0624C31.108 63.6044 30.4346 63.9339 29.7181 63.9911C29.0016 64.0482 28.2896 63.8293 27.7117 63.3739L27.3757 63.0624L17.3747 52.3954C16.8666 51.8536 16.5577 51.1352 16.5041 50.371C16.4505 49.6068 16.6558 48.8474 17.0827 48.231L17.3747 47.8726L27.3757 37.2055C27.9117 36.6382 28.6286 36.3074 29.3833 36.279C30.138 36.2507 30.8749 36.5269 31.447 37.0526C32.0192 37.5783 32.3844 38.3147 32.4699 39.115C32.5553 39.9153 32.3547 40.7205 31.9081 41.3699L31.616 41.7283L26.7356 46.9339H44.5052C48.0858 46.9342 51.5305 45.4713 54.131 42.846C56.7314 40.2207 58.2901 36.6326 58.4865 32.8192L58.5066 32C58.5066 27.3876 56.5464 23.2616 53.4661 20.5223C53.0243 20.0854 52.716 19.5168 52.5814 18.8905C52.4468 18.2642 52.4921 17.6092 52.7114 17.0108C52.9306 16.4123 53.3137 15.8981 53.8108 15.5351C54.3078 15.172 54.8959 14.977 55.4983 14.9754ZM33.3762 0.937559C33.8842 0.395597 34.5577 0.0660785 35.2742 0.00891822C35.9907 -0.0482421 36.7026 0.170752 37.2806 0.626081L37.6166 0.937559L47.6175 11.6046L47.9096 11.963C48.2864 12.5067 48.492 13.1637 48.4971 13.8398C48.5021 14.5159 48.3062 15.1763 47.9376 15.7264L47.6175 16.1274L37.6166 26.7945L37.2806 27.106C36.7708 27.5079 36.1548 27.7272 35.521 27.7326C34.8871 27.7379 34.2679 27.529 33.7522 27.1358L33.3762 26.7945L33.0842 26.4361C32.7074 25.8924 32.5017 25.2353 32.4967 24.5593C32.4917 23.8832 32.6875 23.2227 33.0562 22.6727L33.3762 22.2717L38.2527 17.0661H20.487C16.9064 17.0658 13.4618 18.5287 10.8613 21.154C8.26082 23.7793 6.70214 27.3674 6.50571 31.1808L6.48571 32C6.48571 36.621 8.4539 40.7512 11.5422 43.4905C12.0892 44.0725 12.4047 44.8571 12.4229 45.681C12.441 46.5048 12.1606 47.3044 11.6398 47.9132C11.1191 48.5219 10.3982 48.893 9.62738 48.949C8.85655 49.005 8.09516 48.7417 7.50181 48.2139C4.45189 45.4319 2.2571 41.7356 1.20271 37.6056C0.148315 33.4755 0.283082 29.1027 1.58949 25.0554C2.8959 21.0081 5.31354 17.4736 8.52816 14.9112C11.7428 12.3488 15.6057 10.877 19.6149 10.6872L20.487 10.6659H38.2487L33.3762 5.46039L33.0842 5.10197C32.6573 4.48555 32.452 3.72618 32.5056 2.96196C32.5592 2.19773 32.8681 1.47939 33.3762 0.937559Z" fill="#4B6A5E"/>
</svg>
