<svg width="80" height="153" viewBox="0 0 80 153" fill="none" xmlns="http://www.w3.org/2000/svg">
<path fill-rule="evenodd" clip-rule="evenodd" d="M38.7429 7.75222C36.6649 11.5665 36.4252 16.985 36.9629 22.1279C36.812 22.076 36.6598 22.0241 36.5065 21.972C33.7834 21.0466 29.7194 21.3151 25.9745 23.3348C26.2123 17.0722 25.7032 12.8227 24.4474 10.5863C21.8067 5.88366 19.3143 5.42069 15.9283 4.92919C12.5424 4.43769 6.40529 7.67895 6.95825 15.986C7.38692 22.4259 13.7704 29.7157 17.8754 33.3696C17.4241 34.7374 17.0813 36.2408 16.8706 37.8868C15.4031 49.3493 24.7309 64.4523 30.7534 71.9058C28.6085 73.6269 26.6459 75.909 25.0524 78.8494L25.0375 78.8093C24.9625 78.6119 24.8877 78.4312 24.8131 78.267C22.5754 73.3423 20.1311 72.6545 16.7991 71.8571C13.4671 71.0597 0.215431 68.633 0.0721283 76.9587C-0.0699005 85.2106 19.5835 110.062 22.4266 112.203C24.4261 123.592 28.1916 133.631 30.7793 136.536C33.9029 140.044 40.888 140.044 51.7346 136.536C61.3053 112.532 65.5671 96.4449 64.5199 88.275C66.4932 85.5996 79.2238 57.7724 78.5589 49.7067C77.8871 41.5572 68.3035 46.2956 65.9065 47.6709C63.5095 49.0462 61.7582 50.156 60.447 55.3893C59.7712 58.0868 59.3291 64.6869 59.1207 75.1896C56.7294 72.5222 53.7431 70.8695 50.2819 69.0264C48.8703 68.2747 47.0964 67.7545 45.1234 67.552C50.0612 51.0868 51.5746 40.0768 49.6633 34.5222C49.5877 34.3025 49.5113 34.0871 49.4343 33.8761C56.5129 24.8598 60.1277 18.3529 60.2788 14.3554C60.5232 7.89024 58.235 5.72785 55.0393 2.92642C51.8437 0.124991 43.4334 -0.857833 38.7429 7.75222Z" fill="#ADD495"/>
<path d="M56.832 129.114H24.3752L26.848 152.148H54.3592L56.832 129.114Z" fill="#80B7A2"/>
<path d="M57.5453 136.247H23.6619V127.23H57.5453V136.247Z" fill="#80B7A2"/>
<path fill-rule="evenodd" clip-rule="evenodd" d="M58.5519 119.09C49.1406 121.953 39.8255 121.928 24.6786 119.955L24.2178 119.895L24.1691 120.296C39.4832 122.315 48.8997 122.388 58.3735 119.564L58.6606 119.478L58.5519 119.09ZM62.0441 106.649C58.2702 106.857 54.185 107.055 54.0376 107.059C54.0015 107.062 54.0013 107.062 53.9746 107.065C53.965 107.039 53.965 107.039 53.7767 107.261C53.9474 107.503 53.9654 107.528 53.974 107.507L53.9769 107.498C54.0018 107.5 54.0018 107.5 54.031 107.502C54.0794 107.504 54.3837 107.515 54.4427 107.517C54.9676 107.537 55.3908 107.567 55.738 107.619C55.9275 107.647 56.0791 107.68 56.1845 107.717L56.2218 107.731L56.2328 107.735L56.2289 107.737C56.0961 107.821 55.7247 107.987 55.1204 108.178L55.0365 108.204C52.8224 108.887 47.9441 109.875 39.8912 111.218C36.7317 111.745 34.1734 111.913 28.3925 112.099C25.5534 112.191 24.2607 112.243 22.6991 112.344L22.6031 112.35L22.6289 112.778C24.2286 112.673 25.5126 112.621 28.4052 112.528C34.2037 112.34 36.7736 112.172 39.9563 111.641C48.0263 110.296 52.9168 109.305 55.1533 108.615C56.6474 108.154 57.0277 107.658 56.447 107.371C57.9252 107.297 59.9029 107.195 61.8258 107.09L62.0659 107.077L62.0441 106.649ZM22.6166 74.5558C20.9804 74.793 19.5991 74.8881 16.4366 75.031C10.0605 75.3189 7.40884 75.7033 4.76626 77.1577C4.44361 77.3353 4.11103 77.4636 3.52146 77.6555C3.43655 77.683 3.43655 77.683 3.35139 77.7106C1.98005 78.1546 1.41437 78.4568 0.988754 79.1843C0.711838 79.6577 1.03541 80.0315 1.66116 80.2764C2.08404 80.4419 2.6729 80.5576 3.11859 80.5812C7.73277 80.8256 7.87909 81.7337 4.12119 87.1057C3.81478 87.5437 3.93768 88.295 4.31691 88.7207C5.15476 89.6612 6.3386 89.6485 7.90681 88.8691C9.02953 88.3111 9.72101 87.8215 12.4328 85.7724C12.9744 85.3632 13.3638 85.073 13.7496 84.7933C16.7625 82.6087 18.7334 81.7738 20.2715 82.3774C20.186 82.4504 20.0636 82.5423 19.9024 82.6548C19.6935 82.8005 18.5116 83.5751 18.1743 83.8068C17.5922 84.2068 17.1302 84.5569 16.7569 84.8929C16.2332 85.3643 15.9053 85.7898 15.7983 86.1947C15.6628 86.7072 15.8908 87.1462 16.4614 87.4549C17.5112 88.023 17.4293 89.0083 16.3619 90.3559C15.4495 91.5077 13.8681 92.7897 12.4159 93.6223C11.0453 94.4081 10.0952 95.5448 10.4406 96.584C11.2791 99.107 13.8685 100.692 16.6614 99.3457C17.3453 99.016 18.0768 97.9865 19.2408 95.94C19.3512 95.746 19.4652 95.5436 19.6101 95.2849C20.7889 93.1802 21.0851 92.6761 21.5528 92.058C21.8391 91.6794 22.0776 91.4505 22.2542 91.3786C22.3844 91.3256 22.4639 91.363 22.5653 91.5636C24.7402 95.8656 19.636 104.601 15.4019 105.37L15.4799 105.836C19.9989 105.016 25.2961 95.9498 22.9671 91.3432C22.7636 90.9405 22.4475 90.792 22.089 90.9379C21.817 91.0486 21.5289 91.3252 21.1961 91.7651C20.709 92.409 20.4121 92.9142 19.2179 95.0465C19.0735 95.3043 18.9599 95.5058 18.8502 95.6988C17.7462 97.6397 17.031 98.6462 16.4707 98.9164C13.9495 100.132 11.628 98.7105 10.8698 96.4292C10.6265 95.6972 11.4434 94.7199 12.6348 94.0368C14.134 93.1773 15.7599 91.8592 16.7121 90.657C17.9369 89.1107 18.0475 87.78 16.6707 87.0351C16.2778 86.8225 16.1622 86.5999 16.2361 86.3203C16.3132 86.0286 16.5926 85.666 17.0537 85.2509C17.4096 84.9306 17.8572 84.5915 18.4243 84.2018C18.7556 83.9741 19.9394 83.1983 20.155 83.0479C20.4076 82.8717 20.5765 82.7392 20.6817 82.629C20.877 82.4244 20.9378 82.1695 20.6614 82.0354C18.8874 81.1743 16.7668 82.0291 13.4902 84.4049C13.1015 84.6868 12.7099 84.9786 12.1662 85.3894C7.37469 89.0099 5.86326 89.7611 4.64976 88.3989C4.40637 88.1257 4.3236 87.6196 4.48817 87.3843C8.42624 81.7548 8.20421 80.3768 3.14164 80.1087C2.74023 80.0875 2.19697 79.9807 1.82086 79.8335C1.42597 79.679 1.30973 79.5447 1.37652 79.4305C1.72327 78.8378 2.22056 78.5721 3.48615 78.1624C3.57127 78.1349 3.57127 78.1349 3.65684 78.1071C4.27151 77.9071 4.62424 77.771 4.97838 77.5761C7.53779 76.1674 10.153 75.7883 16.4562 75.5036C19.6334 75.3601 21.0237 75.2644 22.6792 75.0244L22.6166 74.5558ZM46.3156 100.824C45.8635 100.906 45.6495 100.945 45.4116 100.988C37.7818 102.374 33.5792 102.839 28.0733 102.579L27.8688 102.569L27.8446 103.093C33.4978 103.376 37.7403 102.914 45.4981 101.505C45.7361 101.462 45.9502 101.423 46.4023 101.34C54.2977 99.9018 58.2042 99.4223 63.643 99.5385L63.829 99.5426L63.8404 99.0183C58.2621 98.8862 54.3312 99.3633 46.3156 100.824ZM25.2101 78.6456L24.5787 79.0228C27.4773 84.2887 31.6194 87.3689 36.9955 88.6617C41.4099 89.7232 46.4428 89.5896 53.0183 88.5251C54.951 88.2122 56.775 87.8679 59.7482 87.2724L59.7539 87.2713C59.8645 87.2491 61.4133 86.9383 61.864 86.8484L62.0459 86.8121C62.6984 86.6822 63.2564 86.5725 63.785 86.4706L63.9428 86.4402L63.8109 85.6945C63.1853 85.8146 62.5276 85.9439 61.7271 86.1036C61.2641 86.196 59.6445 86.5211 59.6108 86.5278C56.6456 87.1217 54.8285 87.4647 52.9066 87.7758C38.8479 90.0518 30.3659 88.0122 25.2101 78.6456ZM57.5585 73.3209C56.6452 74.1144 55.7242 74.8119 54.7923 75.4186C51.052 77.8536 47.159 78.8347 42.5956 78.7071C39.1541 78.6109 37.0687 78.2279 29.3256 76.5047C28.4338 76.3062 27.7229 76.1506 27.0361 76.0044L26.8893 75.9732L26.7193 76.8436C27.4492 76.9983 28.1944 77.1613 29.1475 77.3734C36.9501 79.1099 39.057 79.4968 42.5727 79.5951C47.2961 79.7271 51.3539 78.7045 55.2441 76.1719C56.129 75.5959 57.003 74.9417 57.8687 74.2058L58.1046 74.0031L57.5585 73.3209ZM78.813 48.3383L78.6753 48.8931C78.6187 48.8779 78.5851 48.7949 78.5829 48.7647L78.5828 48.758C78.5542 48.8309 78.4673 48.9492 78.3433 49.076C78.0764 49.3492 77.7234 49.5776 77.5718 49.5891C75.4336 49.7499 73.5326 49.7415 69.9527 49.6173C69.7329 49.6097 69.7329 49.6097 69.513 49.602C64.9009 49.4405 62.8512 49.4415 60.2906 49.717C59.9608 49.7525 59.8326 50.0367 59.9315 50.343C59.9883 50.5187 60.1186 50.7234 60.3014 50.9429C60.6552 51.3678 61.1338 51.7663 61.4562 51.8743C61.2435 51.803 67.001 52.7327 69.659 53.4627C74.0809 54.6773 76.9259 56.3739 77.5656 58.6405C77.73 59.2229 77.4011 59.6837 76.6126 60.0612C75.9751 60.3664 75.1038 60.5735 74.256 60.6701C73.424 60.7649 72.5508 60.7247 71.5095 60.5676C70.9726 60.4867 70.5432 60.4047 69.5673 60.2054C67.5302 59.7893 66.616 59.6549 65.463 59.6821C64.9834 59.6934 64.5746 59.6588 63.2056 59.5126C62.9283 59.483 62.7385 59.4632 62.5463 59.4444C61.0979 59.3028 60.175 59.2921 59.4798 59.4703C58.5036 59.7206 58.0988 60.3849 58.4497 61.4176C59.1627 63.5161 60.433 64.1574 63.7121 64.7979C63.8236 64.8197 63.8236 64.8197 63.935 64.8415C65.629 65.174 66.4737 65.4278 67.2708 65.9401L67.3395 65.9837C67.6662 66.189 68.0787 66.4166 68.6384 66.7058C68.9553 66.8695 70.1244 67.4588 70.2987 67.5478C71.3301 68.0743 72.0365 68.4661 72.6138 68.8491C73.2568 69.2756 73.6708 69.6543 73.8365 69.9749C73.9864 70.2647 73.9263 70.4873 73.5774 70.7452C69.8562 73.4953 65.3162 73.3311 59.9403 71.7196C59.9547 71.7239 59.2961 71.5243 59.1679 71.4877L59.1111 71.4716C58.8402 71.3954 58.7659 71.385 58.6528 71.4359C58.5126 71.4991 58.4454 71.6601 58.494 71.8092C58.5139 71.8703 58.544 71.9119 58.5857 71.955C58.6275 71.9982 58.6872 72.0461 58.7738 72.1086C58.9163 72.2113 59.138 72.3574 59.5227 72.6038C59.7237 72.7325 60.6727 73.336 60.8939 73.4771C61.5917 73.9221 62.246 74.3427 62.9635 74.8087C64.9065 76.0707 67.0289 77.4822 69.4684 79.1447L69.7695 78.6652C67.3266 77.0003 65.2008 75.5866 63.2544 74.3224C62.5357 73.8556 61.8801 73.4342 61.1811 72.9883C61.0432 72.9004 60.6243 72.6339 60.2791 72.4141C65.5922 73.9342 70.1099 74.0104 73.8956 71.2126C74.463 70.7933 74.6075 70.2577 74.3208 69.7031C74.0988 69.2737 73.6256 68.8409 72.9092 68.3657C72.3103 67.9684 71.5892 67.5684 70.5408 67.0332C70.3642 66.943 69.1968 66.3546 68.8828 66.1924C68.2971 65.8898 67.879 65.6576 67.5595 65.4523C66.6864 64.8913 65.7957 64.6236 64.0368 64.2784C63.925 64.2565 63.925 64.2564 63.8134 64.2347C60.7176 63.63 59.5917 63.0616 58.9682 61.2264C58.7323 60.5322 58.9346 60.2002 59.6112 60.0268C60.2261 59.8692 61.1079 59.8793 62.4949 60.015C62.6851 60.0336 62.8736 60.0532 63.1495 60.0826C64.5484 60.232 64.9623 60.267 65.4754 60.255C66.5753 60.229 67.4635 60.3596 69.4614 60.7677C70.4464 60.9688 70.8817 61.052 71.4307 61.1348C72.5144 61.2982 73.4319 61.3405 74.3158 61.2397C75.2172 61.137 76.1416 60.9173 76.8423 60.5819C77.849 60.0999 78.352 59.3953 78.0933 58.4788C77.3795 55.9497 74.3982 54.1718 69.7992 52.9086C67.0983 52.1668 61.3608 51.2404 61.6246 51.3288C61.4184 51.2597 61.0106 50.9202 60.7169 50.5674C60.6244 50.4564 60.5514 50.3533 60.5042 50.2704C62.9602 50.0151 65.0029 50.0174 69.4945 50.1747C69.7144 50.1824 69.7144 50.1824 69.9344 50.19C73.5328 50.3149 75.4483 50.3234 77.6114 50.1606C77.9257 50.137 78.3769 49.845 78.7288 49.4848C78.9033 49.3062 79.0326 49.1296 79.0943 48.9688C79.2001 48.6932 79.1071 48.4175 78.813 48.3383ZM32.7908 60.5907C30.5768 61.2537 28.418 62.4982 25.8521 64.6214L25.6805 64.7643L25.9866 65.1614C28.581 62.9905 30.7308 61.7375 32.9259 61.0803C35.3548 60.353 36.8747 60.3152 42.9171 60.5817C44.7356 60.6618 46.0253 60.7056 47.445 60.7257L47.6232 60.728L47.6292 60.2187C46.1437 60.2 44.8275 60.1561 42.9377 60.0728C36.8363 59.8037 35.291 59.8421 32.7908 60.5907ZM48.4849 52.7211C43.8541 55.022 40.0355 55.2863 31.0915 54.7038C25.8284 54.3611 23.3847 54.3117 20.4145 54.6522L20.2869 54.6671L20.3607 55.3467C23.3386 54.996 25.7502 55.0413 31.0505 55.3865C40.0136 55.9702 43.9236 55.7116 48.6248 53.4089L48.7675 53.3385L48.4849 52.7211ZM29.2278 20.8059C28.459 23.1871 28.041 25.7715 27.7626 29.2428C27.6904 30.1438 27.6471 30.7921 27.5398 32.5039C27.1761 38.3071 26.8399 40.77 25.8051 43.3015C24.4941 46.5092 22.1952 48.5376 18.4009 49.4755L18.242 49.514L18.4308 50.3802C22.5869 49.3968 25.1531 47.1641 26.5896 43.6496C27.6762 40.9912 28.0203 38.4703 28.3906 32.5618C28.4976 30.8555 28.5406 30.2105 28.6123 29.3168C28.8478 26.3799 29.1834 24.1012 29.7475 22.0544C30.0597 31.4351 30.9549 36.0268 33.4615 38.6474C36.3653 41.6831 41.435 41.5278 49.9734 38.0403L50.2332 37.9336L50.0631 37.4865C41.5221 41.0134 36.5515 41.1964 33.7885 38.3079C31.3926 35.803 30.5134 31.2719 30.2072 21.9831L30.1981 21.7002L29.8445 21.7123C29.8853 21.5724 29.9273 21.4336 29.9704 21.2956L30.036 21.0891L29.2278 20.8059ZM27.5285 21.7002C27.3338 22.7762 27.1617 23.8507 26.9794 25.0976C26.8884 25.7197 26.6186 27.6406 26.5577 28.0682L26.5502 28.1208C25.3817 36.2321 23.7478 38.4843 16.6815 39.2842L16.4657 39.308L16.5269 39.9265C24.0891 39.1141 25.9238 36.6587 27.1404 28.213L27.148 28.1602C27.2091 27.7312 27.4788 25.8112 27.5694 25.1912C27.7368 24.0464 27.8954 23.0487 28.0708 22.0619L28.115 21.8153L27.5285 21.7002ZM36.6227 19.8736C36.5101 29.8179 36.7731 33.2196 38.4021 35.9467C40.47 39.4086 44.6009 39.6415 51.8154 36.5257L52.035 36.4302L51.7049 35.6112C44.6935 38.6785 40.9297 38.497 39.126 35.4773C37.6403 32.9901 37.3705 29.6688 37.4721 20.1737L37.4753 19.8841L36.6227 19.8736ZM36.535 15.1591L36.1524 15.4397C36.9795 16.6633 40.6012 22.0346 41.2952 23.0559C42.5485 24.9 43.19 25.8086 43.5683 26.2655C44.0534 26.8515 44.4974 26.8788 44.4188 26.1579C44.3993 25.9789 44.1612 24.7949 44.1047 24.426C43.8114 22.5107 44.0985 21.3743 45.2958 21.1094C47.0331 20.7249 50.5157 22.1721 56.0878 25.9138L56.2572 26.0279L56.5116 25.6188C50.7382 21.7233 47.1186 20.2077 45.1986 20.6326C43.6652 20.9719 43.3145 22.3598 43.6427 24.5028C43.6871 24.7925 43.8283 25.5125 43.9046 25.9254C43.5374 25.4775 42.8999 24.5736 41.6771 22.7742C40.9836 21.7538 37.3625 16.3833 36.535 15.1591ZM26.6964 11.5745C26.4779 11.1703 25.7272 11.1245 24.1796 11.2975C20.3483 11.7257 17.3067 12.23 10.4818 13.4854C7.07438 14.1122 5.55946 14.384 3.66343 14.6983L3.75723 15.3124C5.6577 14.9973 7.17483 14.7252 10.5856 14.0977C17.3971 12.8447 20.4299 12.3419 24.2433 11.9157C25.4575 11.78 26.1452 11.822 26.1764 11.8797L26.1761 11.879L26.1731 11.877C26.1338 11.8642 25.8225 12.1553 25.2222 12.5377L25.1543 12.5806C24.4267 13.0357 23.3706 13.6044 21.8134 14.3919C20.9968 14.8049 17.8644 16.3584 17.3324 16.625C16.6745 16.9548 16.0888 17.2517 15.5378 17.5356C11.6655 19.5302 9.38937 20.9443 8.54132 22.0488C7.94661 22.8233 8.05811 23.5363 8.92648 23.9393C9.7118 24.3038 11.1836 24.4614 13.428 24.416C16.0213 24.3635 18.0648 24.0341 22.6362 23.0793C24.9088 22.6047 25.9189 22.4058 27.183 22.2021L27.0917 21.5876C25.816 21.7932 24.8001 21.9932 22.5188 22.4697C17.9824 23.4172 15.9622 23.7427 13.4164 23.7943C11.2552 23.8381 9.85095 23.6876 9.16933 23.3713C8.68024 23.1443 8.64373 22.9108 9.00738 22.4372C9.7761 21.4361 12.0267 20.0378 15.8023 18.093C16.3512 17.8102 16.935 17.5142 17.5911 17.1854C18.1212 16.9197 21.2549 15.3655 22.074 14.9513C23.6463 14.1562 24.7144 13.5809 25.4615 13.1137C26.5118 12.4568 26.9468 12.0376 26.6964 11.5745ZM37.796 9.03379L37.5968 9.47484C37.6141 9.48332 42.135 12.1477 44.3234 13.2919C46.1274 14.2351 47.8378 15.0327 49.4576 15.6643C54.5725 17.6585 58.3562 17.847 60.3566 15.6041L60.4167 15.5354L60.0677 15.2108C58.2591 17.3211 54.6205 17.1567 49.6216 15.2077C48.0189 14.5829 46.3234 13.7922 44.5333 12.8562C42.3609 11.7204 37.833 9.05193 37.796 9.03379ZM41.5352 4.84253L41.0739 4.92383C41.9017 10.0223 45.5753 11.4525 52.085 10.7796C53.0261 10.6824 53.9392 10.5573 55.3187 10.3469C58.0631 9.92842 58.4592 9.87221 59.3839 9.80277L59.4299 9.79934L59.3966 9.31314C58.4211 9.38555 58.057 9.43672 55.2509 9.86461C53.878 10.074 52.971 10.1982 52.0388 10.2946C45.7431 10.9453 42.309 9.60836 41.5352 4.84253Z" fill="black" fill-opacity="0.25"/>
<path d="M24.452 119.891L22.0299 120.815L22.2349 121.399L24.657 120.476L24.452 119.891ZM59.444 118.239L56.8654 118.476L56.9178 119.096L59.4964 118.859L59.444 118.239ZM22.0085 116.295L21.9298 116.912L24.7533 117.303L24.832 116.686L22.0085 116.295ZM25.5882 79.1012L25.001 79.2121C25.2521 80.6571 25.5402 82.0933 25.9945 84.2227C26.0539 84.5014 26.1078 84.753 26.2055 85.208C27.8558 92.9003 28.3412 96.1552 28.0713 99.9515C27.7177 104.926 25.7139 108.728 21.5105 111.623L21.8395 112.142C26.2025 109.137 28.2997 105.158 28.6665 99.9975C28.9424 96.1173 28.4518 92.8277 26.7879 85.0723C26.6903 84.6175 26.6365 84.3661 26.5771 84.0877C26.1244 81.9657 25.8377 80.5363 25.5882 79.1012ZM50.8325 104.854L48.3587 106.965L48.7367 107.446L51.2105 105.335L50.8325 104.854ZM65.0173 101.771L62.6285 102.809L62.8581 103.384L65.247 102.346L65.0173 101.771ZM36.9957 95.9169L36.7318 97.9097L37.323 97.9948L37.5869 96.002L36.9957 95.9169ZM58.1284 74.0443L57.6244 74.3721C61.7126 81.1143 63.7339 85.8757 64.7725 91.495L65.359 91.384C64.3044 85.6782 62.2537 80.8477 58.1284 74.0443ZM5.07262 86.9131L3.07596 87.7082L3.28893 88.2893L5.28559 87.4943L5.07262 86.9131ZM40.7206 84.5882L39.9063 86.6496L40.4582 86.8865L41.2725 84.8251L40.7206 84.5882ZM4.25058 70.4919L3.67633 70.6614L4.64135 74.2139L5.21561 74.0444L4.25058 70.4919ZM18.5171 70.165L18.04 72.9832L18.6278 73.0913L19.1049 70.2732L18.5171 70.165ZM52.809 68.6559L50.7566 71.2884L51.2198 71.6807L53.2722 69.0483L52.809 68.6559ZM58.8795 64.6368L58.369 64.9591L60.0518 67.8546L60.5623 67.5322L58.8795 64.6368ZM48.0329 64.5789L44.7798 64.9338L44.8419 65.5526L48.095 65.1976L48.0329 64.5789ZM76.1188 58.4944L76.0621 59.1137L79.5483 59.4608L79.6051 58.8415L76.1188 58.4944ZM21.0568 58.6324L21.0198 59.2534L23.7992 59.433L23.8361 58.8121L21.0568 58.6324ZM60.3449 53.6981L59.8345 54.0206L61.6497 57.1417L62.16 56.8192L60.3449 53.6981ZM17.883 53.0617L17.859 53.6833L21.7474 53.8465L21.7714 53.2248L17.883 53.0617ZM50.1887 52.3885L48.491 52.983L48.6811 53.5727L50.3788 52.9782L50.1887 52.3885ZM41.8426 47.5158L38.9692 50.669L39.4019 51.0975L42.2754 47.9443L41.8426 47.5158ZM33.8364 48.2925L33.5874 50.7323L34.1809 50.7981L34.4299 48.3583L33.8364 48.2925ZM68.0345 46.0226L67.1877 48.4789L67.7493 48.6893L68.5961 46.233L68.0345 46.0226ZM79.3082 45.3073L75.9776 48.0968L76.3515 48.5818L79.682 45.7923L79.3082 45.3073ZM29.6681 44.7387L29.1235 48.1705L29.7124 48.272L30.2569 44.8402L29.6681 44.7387ZM52.441 39.9183L50.4943 42.1125L50.9325 42.5349L52.8792 40.3407L52.441 39.9183ZM36.5957 25.0376L36.0136 25.1752C36.6787 28.2322 36.8209 28.8736 37.1091 30.0695C38.2731 34.8988 39.3135 37.1536 41.0705 37.9032C43.0384 38.7428 45.7591 37.4395 49.9969 33.6745L49.6098 33.201C45.5337 36.8223 42.98 38.0456 41.2966 37.3274C39.7901 36.6847 38.8037 34.5469 37.688 29.918C37.4014 28.7288 37.2595 28.0887 36.5957 25.0376ZM25.7955 22.9656C25.5216 24.3068 25.2954 25.6088 25.067 27.1006C24.979 27.6753 24.6544 29.9042 24.5738 30.418C23.76 35.6104 22.8845 35.9991 17.5152 32.6586L17.2093 33.1928C22.9317 36.753 24.2794 36.1547 25.1629 30.5184C25.2441 30.0002 25.5689 27.7698 25.6564 27.1987C25.8833 25.7167 26.1077 24.4248 26.3793 23.0951L25.7955 22.9656ZM55.2894 29.1467L52.5059 29.2943L52.5362 29.9156L55.3197 29.7681L55.2894 29.1467ZM13.3341 27.7392L11.0868 27.8955L11.1265 28.5162L13.3738 28.36L13.3341 27.7392Z" fill="#80B7A2"/>
</svg>
