<?xml version="1.0" standalone="no"?>
<!DOCTYPE svg PUBLIC "-//W3C//DTD SVG 20010904//EN"
 "http://www.w3.org/TR/2001/REC-SVG-20010904/DTD/svg10.dtd">
<svg version="1.0" xmlns="http://www.w3.org/2000/svg"
 width="700.000000pt" height="700.000000pt" viewBox="0 0 700.000000 700.000000"
 preserveAspectRatio="xMidYMid meet">
<metadata>
Created by potrace 1.14, written by Peter Selinger 2001-2017
</metadata>
<g transform="translate(0.000000,700.000000) scale(0.100000,-0.100000)"
fill="#000000" stroke="none">
<path d="M3278 6995 c-1 -1 -42 -5 -89 -9 -47 -4 -95 -8 -105 -10 -10 -2 -48
-7 -84 -12 -36 -4 -67 -8 -70 -9 -3 -1 -25 -5 -50 -9 -25 -4 -101 -21 -170
-38 -69 -16 -135 -31 -147 -34 -40 -8 -264 -84 -367 -126 -878 -349 -1593
-1066 -1946 -1949 -66 -165 -142 -407 -165 -530 -3 -13 -14 -69 -25 -124 -24
-124 -30 -163 -47 -345 -15 -162 -8 -594 12 -710 2 -14 6 -47 9 -75 47 -409
239 -953 466 -1318 30 -48 60 -95 65 -105 24 -42 133 -191 208 -285 147 -182
310 -348 497 -504 102 -84 305 -233 320 -233 5 0 10 -4 10 -10 0 -5 4 -10 10
-10 5 0 40 -19 77 -43 173 -110 480 -253 706 -327 198 -66 425 -119 616 -146
25 -3 57 -8 71 -10 163 -25 682 -25 842 1 13 2 46 7 73 10 71 10 87 13 115 18
14 3 43 8 65 12 115 21 314 74 455 122 558 189 1087 540 1480 982 36 41 70 79
76 85 29 30 185 242 240 326 122 187 240 409 315 597 66 163 147 422 175 558
16 75 54 300 60 350 4 33 9 76 11 95 8 70 10 547 2 610 -4 36 -10 94 -14 130
-3 36 -8 72 -10 80 -2 8 -7 35 -10 60 -9 69 -33 183 -65 311 -163 647 -525
1249 -1031 1714 -491 452 -1151 771 -1799 870 -25 4 -53 9 -62 11 -9 1 -43 6
-75 9 -32 4 -76 9 -98 12 -44 5 -541 13 -547 8z m517 -159 c17 -3 59 -8 95
-11 36 -3 72 -8 80 -10 8 -2 32 -6 53 -9 94 -14 118 -19 202 -37 493 -108 980
-343 1380 -666 113 -91 353 -324 439 -426 219 -259 399 -550 533 -857 8 -19
19 -44 24 -55 55 -126 155 -453 173 -569 4 -21 8 -41 10 -45 2 -3 7 -26 10
-51 3 -25 8 -54 10 -65 36 -182 53 -560 35 -770 -11 -126 -19 -210 -24 -237
-13 -81 -35 -206 -39 -223 -73 -332 -193 -651 -349 -930 -208 -373 -523 -743
-852 -1002 -264 -207 -563 -378 -850 -487 -55 -21 -109 -42 -120 -47 -23 -9
-168 -54 -205 -64 -14 -3 -47 -12 -75 -19 -157 -42 -387 -80 -564 -94 -120 -9
-454 -8 -541 1 -36 4 -87 10 -115 13 -405 44 -865 193 -1235 400 -138 77 -405
255 -440 294 -3 3 -39 32 -80 65 -157 126 -386 369 -542 576 -265 353 -484
831 -573 1249 -38 181 -61 332 -72 471 -14 174 -7 540 12 664 3 17 7 48 10 70
54 405 202 839 406 1193 83 142 245 382 279 412 3 3 21 25 40 50 93 120 332
359 470 471 433 347 913 577 1425 683 106 22 164 32 295 51 19 2 78 8 130 11
52 4 96 8 98 9 5 5 434 -4 467 -9z"/>
<path d="M1490 5459 c-22 -10 -49 -32 -60 -51 -20 -33 -20 -45 -20 -1993 l0
-1960 25 -37 c49 -73 -111 -68 2050 -65 1920 2 1940 2 1974 22 18 11 42 36 52
55 18 33 19 92 19 1607 0 1077 -3 1580 -11 1599 -11 30 -778 802 -819 825 -21
12 -273 14 -1598 15 -1482 0 -1575 -1 -1612 -17z m986 -879 c0 -327 2 -603 3
-612 2 -24 48 -76 84 -95 28 -14 123 -16 907 -16 976 0 910 -5 967 70 l28 36
0 608 0 607 50 0 50 0 333 -332 332 -331 0 -1430 0 -1431 -289 1 c-159 0 -293
3 -297 7 -4 5 -8 387 -8 850 l-1 843 -27 50 c-15 28 -40 59 -55 70 -28 20 -45
20 -1075 21 -1192 2 -1087 10 -1142 -87 l-31 -54 -1 -843 c-1 -463 -5 -846 -9
-850 -3 -4 -137 -7 -296 -8 l-289 0 0 1761 0 1762 382 -1 382 -1 2 -595z
m1679 588 c6 -4 9 -180 8 -500 0 -271 -2 -496 -2 -501 -1 -4 -312 -6 -693 -5
l-692 3 -1 495 c0 272 1 500 2 506 4 11 1360 14 1378 2z m173 -2113 c11 -11 8
-1394 -3 -1398 -5 -2 -395 -3 -865 -3 l-855 1 0 700 0 700 45 5 c65 7 1671 2
1678 -5z"/>
<path d="M3756 4952 c-34 -4 -75 -28 -96 -57 -30 -39 -36 -82 -35 -240 2 -176
9 -205 63 -244 66 -46 154 -32 206 32 l31 39 3 168 c3 151 1 174 -16 214 -28
63 -87 96 -156 88z"/>
</g>
</svg>
